<svg width="2786" height="1498" viewBox="0 0 2786 1498" fill="none" xmlns="http://www.w3.org/2000/svg">
<path d="M285.141 1133V1105H334.741V1133H285.141ZM236.341 1224.6C232.874 1224.6 229.807 1224.2 227.141 1223.4C224.474 1222.6 222.074 1221.53 219.941 1220.2C218.074 1218.87 216.474 1217.67 215.141 1216.6C225.807 1207.53 233.407 1197.93 237.941 1187.8C242.741 1177.67 245.807 1167.67 247.141 1157.8C248.474 1148.2 249.141 1139.93 249.141 1133V958.6C249.141 951.933 250.874 947.4 254.341 945C257.807 942.333 262.074 941 267.141 941C272.207 941 276.474 942.333 279.941 945C283.407 947.4 285.141 951.933 285.141 958.6V1133C285.141 1142.33 284.341 1152.33 282.741 1163C281.141 1173.67 278.474 1183.67 274.741 1193C271.007 1202.33 265.941 1209.93 259.541 1215.8C253.407 1221.67 245.674 1224.6 236.341 1224.6ZM334.741 1133V1105C337.941 1105 340.074 1106.2 341.141 1108.6C342.207 1111 342.741 1114.47 342.741 1119C342.741 1123.27 342.207 1126.73 341.141 1129.4C340.074 1131.8 337.941 1133 334.741 1133ZM334.875 1133V1105H361.675C370.208 1105 377.275 1103 382.875 1099C388.475 1095 392.742 1089.93 395.675 1083.8C398.875 1077.67 401.142 1071.27 402.475 1064.6C404.075 1057.93 405.008 1051.93 405.275 1046.6C405.542 1041 405.675 1037 405.675 1034.6C405.675 1027.4 405.008 1018.87 403.675 1009C402.342 999.133 399.275 988.867 394.475 978.2C389.942 967.533 382.342 957.8 371.675 949C373.008 947.667 374.608 946.467 376.475 945.4C378.608 944.067 381.008 943 383.675 942.2C386.342 941.4 389.408 941 392.875 941C402.208 941 409.942 944.067 416.075 950.2C422.475 956.333 427.542 964.333 431.275 974.2C435.008 983.8 437.675 994.067 439.275 1005C440.875 1015.93 441.675 1026.07 441.675 1035.4C441.675 1066.07 434.608 1090.07 420.475 1107.4C406.342 1124.47 386.742 1133 361.675 1133H334.875ZM334.875 1133C331.675 1133 329.542 1131.8 328.475 1129.4C327.408 1126.73 326.875 1123.27 326.875 1119C326.875 1114.47 327.408 1111 328.475 1108.6C329.542 1106.2 331.675 1105 334.875 1105V1133ZM422.875 1211C416.742 1211 411.408 1208.73 406.875 1204.2C402.342 1199.67 400.075 1194.33 400.075 1188.2C400.075 1181.8 402.342 1176.33 406.875 1171.8C411.408 1167.27 416.742 1165 422.875 1165C429.275 1165 434.608 1167.27 438.875 1171.8C443.408 1176.33 445.675 1181.8 445.675 1188.2C445.675 1194.33 443.408 1199.67 438.875 1204.2C434.608 1208.73 429.275 1211 422.875 1211ZM364.475 1211C358.342 1211 353.008 1208.73 348.475 1204.2C343.942 1199.67 341.675 1194.33 341.675 1188.2C341.675 1181.8 343.942 1176.33 348.475 1171.8C353.008 1167.27 358.342 1165 364.475 1165C370.875 1165 376.208 1167.27 380.475 1171.8C385.008 1176.33 387.275 1181.8 387.275 1188.2C387.275 1194.33 385.008 1199.67 380.475 1204.2C376.208 1208.73 370.875 1211 364.475 1211ZM545.688 1133V1105H595.288V1133H545.688ZM496.888 1224.6C493.421 1224.6 490.354 1224.2 487.688 1223.4C485.021 1222.6 482.621 1221.53 480.488 1220.2C478.621 1218.87 477.021 1217.67 475.688 1216.6C486.354 1207.53 493.954 1197.93 498.488 1187.8C503.288 1177.67 506.354 1167.67 507.688 1157.8C509.021 1148.2 509.688 1139.93 509.688 1133V958.6C509.688 951.933 511.421 947.4 514.888 945C518.354 942.333 522.621 941 527.688 941C532.754 941 537.021 942.333 540.488 945C543.954 947.4 545.688 951.933 545.688 958.6V1133C545.688 1142.33 544.888 1152.33 543.288 1163C541.688 1173.67 539.021 1183.67 535.288 1193C531.554 1202.33 526.488 1209.93 520.088 1215.8C513.954 1221.67 506.221 1224.6 496.888 1224.6ZM595.288 1133V1105C598.488 1105 600.621 1106.2 601.688 1108.6C602.754 1111 603.288 1114.47 603.288 1119C603.288 1123.27 602.754 1126.73 601.688 1129.4C600.621 1131.8 598.488 1133 595.288 1133ZM824.622 1133C810.755 1133 798.355 1129.8 787.422 1123.4C776.755 1116.73 768.355 1107.8 762.222 1096.6C756.089 1085.13 753.022 1072.2 753.022 1057.8V1046.6H789.022V1057.8C789.022 1065.27 790.222 1072.6 792.622 1079.8C795.289 1087 799.289 1093 804.622 1097.8C809.955 1102.6 816.622 1105 824.622 1105H839.022V1133H824.622ZM595.422 1133V1105H717.422C728.355 1105 737.022 1100.73 743.422 1092.2C749.822 1083.4 753.022 1068.47 753.022 1047.4C753.022 1018.07 746.222 997.667 732.622 986.2C719.289 974.733 699.955 969 674.622 969C669.289 969 664.489 969.133 660.222 969.4C655.955 969.667 652.089 970.067 648.622 970.6C645.155 970.867 641.822 971 638.622 971C632.222 971 627.022 970.067 623.022 968.2C619.022 966.333 615.955 963.667 613.822 960.2C611.955 956.467 610.489 952.333 609.422 947.8C608.889 944.867 608.355 941.933 607.822 939C607.555 935.8 607.555 933.667 607.822 932.6C610.489 934.467 614.089 936.6 618.622 939C623.155 941.4 629.289 942.6 637.022 942.6C639.689 942.6 642.755 942.467 646.222 942.2C649.955 941.933 654.089 941.667 658.622 941.4C663.155 941.133 668.089 941 673.422 941C693.955 941 711.555 943.533 726.222 948.6C740.889 953.4 752.755 960.467 761.822 969.8C771.155 979.133 777.955 990.333 782.222 1003.4C786.755 1016.47 789.022 1031 789.022 1047C789.022 1068.33 785.689 1085.4 779.022 1098.2C772.355 1110.73 763.555 1119.67 752.622 1125C741.955 1130.33 730.222 1133 717.422 1133H595.422ZM595.422 1133C592.222 1133 590.089 1131.8 589.022 1129.4C587.955 1126.73 587.422 1123.27 587.422 1119C587.422 1114.47 587.955 1111 589.022 1108.6C590.089 1106.2 592.222 1105 595.422 1105V1133ZM839.022 1133V1105C842.222 1105 844.355 1106.2 845.422 1108.6C846.489 1111 847.022 1114.47 847.022 1119C847.022 1123.27 846.489 1126.73 845.422 1129.4C844.355 1131.8 842.222 1133 839.022 1133ZM839.172 1133V1105H849.172C857.439 1105 864.105 1102.6 869.172 1097.8C874.505 1093 878.372 1087 880.772 1079.8C883.439 1072.6 884.772 1065.27 884.772 1057.8V958.6C884.772 951.933 886.505 947.4 889.972 945C893.439 942.333 897.705 941 902.772 941C907.839 941 912.105 942.333 915.572 945C919.039 947.4 920.772 951.933 920.772 958.6V1057.8C920.772 1072.2 917.705 1085.13 911.572 1096.6C905.439 1107.8 897.039 1116.73 886.372 1123.4C875.705 1129.8 863.305 1133 849.172 1133H839.172ZM956.372 1133C942.505 1133 930.105 1129.8 919.172 1123.4C908.505 1116.73 900.105 1107.8 893.972 1096.6C887.839 1085.13 884.772 1072.2 884.772 1057.8H920.772C920.772 1065.27 921.972 1072.6 924.372 1079.8C927.039 1087 931.039 1093 936.372 1097.8C941.705 1102.6 948.372 1105 956.372 1105H970.772V1133H956.372ZM970.772 1133V1105C973.972 1105 976.105 1106.2 977.172 1108.6C978.239 1111 978.772 1114.47 978.772 1119C978.772 1123.27 978.239 1126.73 977.172 1129.4C976.105 1131.8 973.972 1133 970.772 1133ZM839.172 1133C835.972 1133 833.839 1131.8 832.772 1129.4C831.705 1126.73 831.172 1123.27 831.172 1119C831.172 1114.47 831.705 1111 832.772 1108.6C833.839 1106.2 835.972 1105 839.172 1105V1133ZM932.372 915C926.239 915 920.905 912.733 916.372 908.2C911.839 903.667 909.572 898.333 909.572 892.2C909.572 885.8 911.839 880.333 916.372 875.8C920.905 871.267 926.239 869 932.372 869C938.772 869 944.105 871.267 948.372 875.8C952.905 880.333 955.172 885.8 955.172 892.2C955.172 898.333 952.905 903.667 948.372 908.2C944.105 912.733 938.772 915 932.372 915ZM873.972 915C867.839 915 862.505 912.733 857.972 908.2C853.439 903.667 851.172 898.333 851.172 892.2C851.172 885.8 853.439 880.333 857.972 875.8C862.505 871.267 867.839 869 873.972 869C880.372 869 885.705 871.267 889.972 875.8C894.505 880.333 896.772 885.8 896.772 892.2C896.772 898.333 894.505 903.667 889.972 908.2C885.705 912.733 880.372 915 873.972 915ZM970.812 1133V1105H980.813C989.079 1105 995.746 1102.6 1000.81 1097.8C1006.15 1093 1010.01 1087 1012.41 1079.8C1015.08 1072.6 1016.41 1065.27 1016.41 1057.8V928.2C1016.41 919.933 1015.21 912.467 1012.81 905.8C1010.68 899.133 1007.88 893.533 1004.41 889C1000.95 884.467 997.613 881.133 994.413 879C995.479 877.667 997.213 876.2 999.613 874.6C1002.28 873 1005.35 871.667 1008.81 870.6C1012.55 869.533 1016.41 869 1020.41 869C1025.48 869 1030.41 870.333 1035.21 873C1040.28 875.4 1044.41 879.8 1047.61 886.2C1050.81 892.6 1052.41 901.667 1052.41 913.4V1057.8C1052.41 1072.2 1049.35 1085.13 1043.21 1096.6C1037.08 1107.8 1028.68 1116.73 1018.01 1123.4C1007.35 1129.8 994.946 1133 980.813 1133H970.812ZM970.812 1133C967.612 1133 965.479 1131.8 964.412 1129.4C963.346 1126.73 962.812 1123.27 962.812 1119C962.812 1114.47 963.346 1111 964.412 1108.6C965.479 1106.2 967.612 1105 970.812 1105V1133ZM1137.83 1133C1129.3 1133 1124.23 1130.47 1122.63 1125.4C1121.03 1120.33 1120.23 1114.33 1120.23 1107.4V928.2C1120.23 919.933 1119.03 912.467 1116.63 905.8C1114.5 899.133 1111.7 893.533 1108.23 889C1104.77 884.467 1101.43 881.133 1098.23 879C1099.3 877.667 1101.03 876.2 1103.43 874.6C1106.1 873 1109.3 871.667 1113.03 870.6C1116.77 869.533 1120.63 869 1124.63 869C1129.7 869 1134.63 870.333 1139.43 873C1144.23 875.4 1148.23 879.8 1151.43 886.2C1154.63 892.6 1156.23 901.667 1156.23 913.4V1107.4C1156.23 1114.33 1155.3 1120.33 1153.43 1125.4C1151.57 1130.47 1146.37 1133 1137.83 1133ZM1454.28 1133V1105H1503.88V1133H1454.28ZM1405.48 1224.6C1402.01 1224.6 1398.95 1224.2 1396.28 1223.4C1393.61 1222.6 1391.21 1221.53 1389.08 1220.2C1387.21 1218.87 1385.61 1217.67 1384.28 1216.6C1394.95 1207.53 1402.55 1197.93 1407.08 1187.8C1411.88 1177.67 1414.95 1167.67 1416.28 1157.8C1417.61 1148.2 1418.28 1139.93 1418.28 1133V958.6C1418.28 951.933 1420.01 947.4 1423.48 945C1426.95 942.333 1431.21 941 1436.28 941C1441.35 941 1445.61 942.333 1449.08 945C1452.55 947.4 1454.28 951.933 1454.28 958.6V1133C1454.28 1142.33 1453.48 1152.33 1451.88 1163C1450.28 1173.67 1447.61 1183.67 1443.88 1193C1440.15 1202.33 1435.08 1209.93 1428.68 1215.8C1422.55 1221.67 1414.81 1224.6 1405.48 1224.6ZM1503.88 1133V1105C1507.08 1105 1509.21 1106.2 1510.28 1108.6C1511.35 1111 1511.88 1114.47 1511.88 1119C1511.88 1123.27 1511.35 1126.73 1510.28 1129.4C1509.21 1131.8 1507.08 1133 1503.88 1133ZM1504.02 1133V1105H1514.02C1522.28 1105 1528.95 1102.6 1534.02 1097.8C1539.35 1093 1543.22 1087 1545.62 1079.8C1548.28 1072.6 1549.62 1065.27 1549.62 1057.8V958.6C1549.62 951.933 1551.35 947.4 1554.82 945C1558.28 942.333 1562.55 941 1567.62 941C1572.68 941 1576.95 942.333 1580.42 945C1583.88 947.4 1585.62 951.933 1585.62 958.6V1057.8C1585.62 1072.2 1582.55 1085.13 1576.42 1096.6C1570.28 1107.8 1561.88 1116.73 1551.22 1123.4C1540.55 1129.8 1528.15 1133 1514.02 1133H1504.02ZM1621.22 1133C1607.35 1133 1594.95 1129.8 1584.02 1123.4C1573.35 1116.73 1564.95 1107.8 1558.82 1096.6C1552.68 1085.13 1549.62 1072.2 1549.62 1057.8H1585.62C1585.62 1065.27 1586.82 1072.6 1589.22 1079.8C1591.88 1087 1595.88 1093 1601.22 1097.8C1606.55 1102.6 1613.22 1105 1621.22 1105H1635.62V1133H1621.22ZM1635.62 1133V1105C1638.82 1105 1640.95 1106.2 1642.02 1108.6C1643.08 1111 1643.62 1114.47 1643.62 1119C1643.62 1123.27 1643.08 1126.73 1642.02 1129.4C1640.95 1131.8 1638.82 1133 1635.62 1133ZM1504.02 1133C1500.82 1133 1498.68 1131.8 1497.62 1129.4C1496.55 1126.73 1496.02 1123.27 1496.02 1119C1496.02 1114.47 1496.55 1111 1497.62 1108.6C1498.68 1106.2 1500.82 1105 1504.02 1105V1133ZM1568.02 1211C1561.35 1211 1555.75 1208.73 1551.22 1204.2C1546.68 1199.67 1544.42 1194.33 1544.42 1188.2C1544.42 1181.8 1546.68 1176.33 1551.22 1171.8C1555.75 1167.27 1561.35 1165 1568.02 1165C1574.15 1165 1579.48 1167.27 1584.02 1171.8C1588.55 1176.33 1590.82 1181.8 1590.82 1188.2C1590.82 1194.33 1588.55 1199.67 1584.02 1204.2C1579.48 1208.73 1574.15 1211 1568.02 1211ZM1849.66 1133C1835.79 1133 1823.39 1129.8 1812.46 1123.4C1801.79 1116.73 1793.39 1107.8 1787.26 1096.6C1781.12 1085.13 1778.06 1072.2 1778.06 1057.8V1037.4H1814.06V1057.8C1814.06 1065.27 1815.26 1072.6 1817.66 1079.8C1820.32 1087 1824.19 1093 1829.26 1097.8C1834.59 1102.6 1841.39 1105 1849.66 1105H1864.06V1133H1849.66ZM1635.66 1133V1105H1720.86C1739.26 1105 1753.39 1099.13 1763.26 1087.4C1773.12 1075.67 1778.06 1058.73 1778.06 1036.6C1778.06 1014.2 1773.39 997.4 1764.06 986.2C1754.72 974.733 1741.26 969 1723.66 969C1712.19 969 1703.79 970.467 1698.46 973.4C1693.39 976.333 1690.86 980.333 1690.86 985.4V1133H1654.86V985.4C1654.86 972.333 1661.26 961.667 1674.06 953.4C1686.86 945.133 1703.39 941 1723.66 941C1751.39 941 1773.39 949.4 1789.66 966.2C1805.92 983 1814.06 1006.47 1814.06 1036.6C1814.06 1056.87 1810.59 1074.2 1803.66 1088.6C1796.72 1103 1787.12 1114.07 1774.86 1121.8C1762.59 1129.27 1748.59 1133 1732.86 1133H1635.66ZM1635.66 1133C1632.46 1133 1630.32 1131.8 1629.26 1129.4C1628.19 1126.73 1627.66 1123.27 1627.66 1119C1627.66 1114.47 1628.19 1111 1629.26 1108.6C1630.32 1106.2 1632.46 1105 1635.66 1105V1133ZM1864.06 1133V1105C1867.26 1105 1869.39 1106.2 1870.46 1108.6C1871.52 1111 1872.06 1114.47 1872.06 1119C1872.06 1123.27 1871.52 1126.73 1870.46 1129.4C1869.39 1131.8 1867.26 1133 1864.06 1133ZM1864.17 1133V1105H1874.17C1882.44 1105 1889.11 1102.6 1894.17 1097.8C1899.51 1093 1903.37 1087 1905.77 1079.8C1908.44 1072.6 1909.77 1065.27 1909.77 1057.8V958.6C1909.77 951.933 1911.51 947.4 1914.97 945C1918.44 942.333 1922.71 941 1927.77 941C1932.84 941 1937.11 942.333 1940.57 945C1944.04 947.4 1945.77 951.933 1945.77 958.6V1057.8C1945.77 1072.2 1942.71 1085.13 1936.57 1096.6C1930.44 1107.8 1922.04 1116.73 1911.37 1123.4C1900.71 1129.8 1888.31 1133 1874.17 1133H1864.17ZM1981.37 1133C1967.51 1133 1955.11 1129.8 1944.17 1123.4C1933.51 1116.73 1925.11 1107.8 1918.97 1096.6C1912.84 1085.13 1909.77 1072.2 1909.77 1057.8H1945.77C1945.77 1065.27 1946.97 1072.6 1949.37 1079.8C1952.04 1087 1956.04 1093 1961.37 1097.8C1966.71 1102.6 1973.37 1105 1981.37 1105H1995.77V1133H1981.37ZM1995.77 1133V1105C1998.97 1105 2001.11 1106.2 2002.17 1108.6C2003.24 1111 2003.77 1114.47 2003.77 1119C2003.77 1123.27 2003.24 1126.73 2002.17 1129.4C2001.11 1131.8 1998.97 1133 1995.77 1133ZM1864.17 1133C1860.97 1133 1858.84 1131.8 1857.77 1129.4C1856.71 1126.73 1856.17 1123.27 1856.17 1119C1856.17 1114.47 1856.71 1111 1857.77 1108.6C1858.84 1106.2 1860.97 1105 1864.17 1105V1133ZM1957.37 915C1951.24 915 1945.91 912.733 1941.37 908.2C1936.84 903.667 1934.57 898.333 1934.57 892.2C1934.57 885.8 1936.84 880.333 1941.37 875.8C1945.91 871.267 1951.24 869 1957.37 869C1963.77 869 1969.11 871.267 1973.37 875.8C1977.91 880.333 1980.17 885.8 1980.17 892.2C1980.17 898.333 1977.91 903.667 1973.37 908.2C1969.11 912.733 1963.77 915 1957.37 915ZM1898.97 915C1892.84 915 1887.51 912.733 1882.97 908.2C1878.44 903.667 1876.17 898.333 1876.17 892.2C1876.17 885.8 1878.44 880.333 1882.97 875.8C1887.51 871.267 1892.84 869 1898.97 869C1905.37 869 1910.71 871.267 1914.97 875.8C1919.51 880.333 1921.77 885.8 1921.77 892.2C1921.77 898.333 1919.51 903.667 1914.97 908.2C1910.71 912.733 1905.37 915 1898.97 915ZM1995.81 1133V1105H2005.81C2014.08 1105 2020.75 1102.6 2025.81 1097.8C2031.15 1093 2035.01 1087 2037.41 1079.8C2040.08 1072.6 2041.41 1065.27 2041.41 1057.8V958.6C2041.41 951.933 2043.15 947.4 2046.61 945C2050.08 942.333 2054.35 941 2059.41 941C2064.48 941 2068.75 942.333 2072.21 945C2075.68 947.4 2077.41 951.933 2077.41 958.6V1057.8C2077.41 1072.2 2074.35 1085.13 2068.21 1096.6C2062.08 1107.8 2053.68 1116.73 2043.01 1123.4C2032.35 1129.8 2019.95 1133 2005.81 1133H1995.81ZM2113.01 1133C2099.15 1133 2086.75 1129.8 2075.81 1123.4C2065.15 1116.73 2056.75 1107.8 2050.61 1096.6C2044.48 1085.13 2041.41 1072.2 2041.41 1057.8H2077.41C2077.41 1065.27 2078.61 1072.6 2081.01 1079.8C2083.68 1087 2087.68 1093 2093.01 1097.8C2098.35 1102.6 2105.01 1105 2113.01 1105H2127.41V1133H2113.01ZM2127.41 1133V1105C2130.61 1105 2132.75 1106.2 2133.81 1108.6C2134.88 1111 2135.41 1114.47 2135.41 1119C2135.41 1123.27 2134.88 1126.73 2133.81 1129.4C2132.75 1131.8 2130.61 1133 2127.41 1133ZM1995.81 1133C1992.61 1133 1990.48 1131.8 1989.41 1129.4C1988.35 1126.73 1987.81 1123.27 1987.81 1119C1987.81 1114.47 1988.35 1111 1989.41 1108.6C1990.48 1106.2 1992.61 1105 1995.81 1105V1133ZM2059.81 1211C2053.15 1211 2047.55 1208.73 2043.01 1204.2C2038.48 1199.67 2036.21 1194.33 2036.21 1188.2C2036.21 1181.8 2038.48 1176.33 2043.01 1171.8C2047.55 1167.27 2053.15 1165 2059.81 1165C2065.95 1165 2071.28 1167.27 2075.81 1171.8C2080.35 1176.33 2082.61 1181.8 2082.61 1188.2C2082.61 1194.33 2080.35 1199.67 2075.81 1204.2C2071.28 1208.73 2065.95 1211 2059.81 1211ZM2377.45 1133V1105H2387.85C2396.39 1105 2403.45 1103 2409.05 1099C2414.65 1095 2418.92 1089.93 2421.85 1083.8C2425.05 1077.67 2427.32 1071.27 2428.65 1064.6C2430.25 1057.93 2431.19 1051.93 2431.45 1046.6C2431.72 1041 2431.85 1037 2431.85 1034.6C2431.85 1027.4 2431.19 1018.87 2429.85 1009C2428.52 999.133 2425.45 988.867 2420.65 978.2C2416.12 967.533 2408.52 957.8 2397.85 949C2399.19 947.667 2400.79 946.467 2402.65 945.4C2404.79 944.067 2407.19 943 2409.85 942.2C2412.52 941.4 2415.59 941 2419.05 941C2428.39 941 2436.12 944.067 2442.25 950.2C2448.65 956.333 2453.72 964.333 2457.45 974.2C2461.19 983.8 2463.85 994.067 2465.45 1005C2467.05 1015.93 2467.85 1026.07 2467.85 1035.4C2467.85 1066.07 2460.79 1090.07 2446.65 1107.4C2432.52 1124.47 2412.92 1133 2387.85 1133H2377.45ZM2250.25 1133C2236.39 1133 2223.99 1129.8 2213.05 1123.4C2202.39 1116.73 2193.99 1107.8 2187.85 1096.6C2181.72 1085.13 2178.65 1072.2 2178.65 1057.8H2214.65C2214.65 1065.27 2215.85 1072.6 2218.25 1079.8C2220.92 1087 2224.92 1093 2230.25 1097.8C2235.59 1102.6 2242.25 1105 2250.25 1105H2255.85V1133H2250.25ZM2127.45 1133V1105H2143.05C2151.32 1105 2157.99 1102.6 2163.05 1097.8C2168.39 1093 2172.25 1087 2174.65 1079.8C2177.32 1072.6 2178.65 1065.27 2178.65 1057.8V980.6C2178.65 973.933 2180.39 969.4 2183.85 967C2187.32 964.333 2191.59 963 2196.65 963C2201.72 963 2205.99 964.333 2209.45 967C2212.92 969.4 2214.65 973.933 2214.65 980.6V1057.8C2214.65 1072.2 2211.59 1085.13 2205.45 1096.6C2199.32 1107.8 2190.92 1116.73 2180.25 1123.4C2169.59 1129.8 2157.19 1133 2143.05 1133H2127.45ZM2369.45 1133C2355.59 1133 2343.19 1129.8 2332.25 1123.4C2321.59 1116.73 2313.19 1107.8 2307.05 1096.6C2300.92 1085.13 2297.85 1072.2 2297.85 1057.8H2333.85C2333.85 1065.27 2335.05 1072.6 2337.45 1079.8C2340.12 1087 2344.12 1093 2349.45 1097.8C2354.79 1102.6 2361.45 1105 2369.45 1105H2377.45V1133H2369.45ZM2255.85 1133V1105H2262.25C2270.52 1105 2277.19 1102.6 2282.25 1097.8C2287.59 1093 2291.45 1087 2293.85 1079.8C2296.52 1072.6 2297.85 1065.27 2297.85 1057.8V971C2297.85 964.333 2299.59 959.8 2303.05 957.4C2306.52 954.733 2310.79 953.4 2315.85 953.4C2320.92 953.4 2325.19 954.733 2328.65 957.4C2332.12 959.8 2333.85 964.333 2333.85 971V1057.8C2333.85 1072.2 2330.79 1085.13 2324.65 1096.6C2318.52 1107.8 2310.12 1116.73 2299.45 1123.4C2288.79 1129.8 2276.39 1133 2262.25 1133H2255.85ZM2127.45 1133C2124.25 1133 2122.12 1131.8 2121.05 1129.4C2119.99 1126.73 2119.45 1123.27 2119.45 1119C2119.45 1114.47 2119.99 1111 2121.05 1108.6C2122.12 1106.2 2124.25 1105 2127.45 1105V1133Z" fill="white"/>
<path d="M1487.08 780V735C1524.88 698.4 1559.08 665.4 1589.68 636C1620.88 606.6 1648.18 579.6 1671.58 555C1694.98 530.4 1714.78 506.7 1730.98 483.9C1747.18 461.1 1759.18 438 1766.98 414.6C1775.38 391.2 1779.58 366 1779.58 339C1779.58 309 1774.18 284.1 1763.38 264.3C1752.58 243.9 1738.18 228.9 1720.18 219.3C1702.78 209.1 1683.58 204 1662.58 204C1626.58 204 1595.08 217.2 1568.08 243.6C1541.08 269.4 1523.08 307.2 1514.08 357H1496.08C1496.08 334.2 1496.98 312.6 1498.78 292.2C1500.58 271.2 1506.88 253.8 1517.68 240C1533.88 220.2 1557.58 203.4 1588.78 189.6C1619.98 175.2 1653.58 168 1689.58 168C1707.58 168 1726.78 170.4 1747.18 175.2C1768.18 179.4 1787.98 187.5 1806.58 199.5C1825.18 211.5 1840.18 228.9 1851.58 251.7C1863.58 273.9 1869.58 303 1869.58 339C1869.58 364.8 1865.38 389.1 1856.98 411.9C1849.18 434.1 1838.08 455.7 1823.68 476.7C1809.28 497.7 1792.18 518.7 1772.38 539.7C1752.58 560.1 1730.68 581.1 1706.68 602.7C1683.28 623.7 1658.08 645.9 1631.08 669.3C1604.68 692.7 1577.68 717.6 1550.08 744H1752.58C1788.58 744 1816.18 736.2 1835.38 720.6C1855.18 705 1865.08 681.3 1865.08 649.5H1883.08V708C1883.08 720 1880.98 731.7 1876.78 743.1C1872.58 753.9 1865.08 762.9 1854.28 770.1C1843.48 776.7 1827.58 780 1806.58 780H1487.08ZM2181.22 798C2109.22 798 2056.72 771.6 2023.72 718.8C1990.72 665.4 1974.22 586.8 1974.22 483C1974.22 378.6 1992.52 300 2029.12 247.2C2065.72 194.4 2122.42 168 2199.22 168C2228.62 168 2254.72 171 2277.52 177C2300.32 182.4 2320.72 188.4 2338.72 195L2334.22 213C2325.22 211.2 2314.42 209.7 2301.82 208.5C2289.22 207.3 2275.72 206.4 2261.32 205.8C2247.52 204.6 2232.82 204 2217.22 204C2163.22 204 2123.32 225 2097.52 267C2072.32 308.4 2059.72 363.9 2059.72 433.5C2075.32 422.1 2093.62 412.5 2114.62 404.7C2136.22 396.9 2162.92 393 2194.72 393C2236.72 393 2270.92 401.4 2297.32 418.2C2323.72 435 2343.22 458.7 2355.82 489.3C2368.42 519.3 2374.72 554.7 2374.72 595.5C2374.72 629.7 2367.52 662.4 2353.12 693.6C2339.32 724.2 2318.02 749.4 2289.22 769.2C2261.02 788.4 2225.02 798 2181.22 798ZM2181.22 762C2204.02 762 2223.52 754.2 2239.72 738.6C2255.92 722.4 2268.22 701.7 2276.62 676.5C2285.02 650.7 2289.22 623.7 2289.22 595.5C2289.22 543.9 2279.62 503.4 2260.42 474C2241.22 444 2210.32 429 2167.72 429C2152.72 429 2138.92 430.8 2126.32 434.4C2113.72 438 2102.02 443.1 2091.22 449.7C2081.02 456.3 2070.52 464.4 2059.72 474C2059.72 543 2064.82 598.8 2075.02 641.4C2085.22 683.4 2099.32 714 2117.32 733.2C2135.92 752.4 2157.22 762 2181.22 762Z" fill="white"/>
<g filter="url(#filter0_i_104_8)">
<g clip-path="url(#clip0_104_8)">
<path d="M252 248H1404V780H252V248Z" fill="black"/>
<path d="M252 248H1404V602.667H252V248Z" fill="white"/>
<path d="M252 248H1404V425.333H252V248Z" fill="#CE1126"/>
</g>
<rect x="251.5" y="247.5" width="1153" height="533" stroke="white"/>
</g>
<defs>
<filter id="filter0_i_104_8" x="251" y="247" width="1154" height="538" filterUnits="userSpaceOnUse" color-interpolation-filters="sRGB">
<feFlood flood-opacity="0" result="BackgroundImageFix"/>
<feBlend mode="normal" in="SourceGraphic" in2="BackgroundImageFix" result="shape"/>
<feColorMatrix in="SourceAlpha" type="matrix" values="0 0 0 0 0 0 0 0 0 0 0 0 0 0 0 0 0 0 127 0" result="hardAlpha"/>
<feOffset dy="4"/>
<feGaussianBlur stdDeviation="2"/>
<feComposite in2="hardAlpha" operator="arithmetic" k2="-1" k3="1"/>
<feColorMatrix type="matrix" values="0 0 0 0 0 0 0 0 0 0 0 0 0 0 0 0 0 0 0.25 0"/>
<feBlend mode="normal" in2="shape" result="effect1_innerShadow_104_8"/>
</filter>
<clipPath id="clip0_104_8">
<rect x="252" y="248" width="1152" height="532" fill="white"/>
</clipPath>
</defs>
</svg>
